# xmcd
#
# Track frame offsets: 
#        150
#        19591
#        36602
#        66731
#        88160
#        120862
#        147745
#        176802
#        197615
#        218158
#        241881
#        271866
#        289449
#        306183
#
# Disc length: 4448 seconds
#
# Revision: 0
# Processed by: cddbd v1.5.2PL0 Copyright (c) Steve Scherf et al.
# Submitted via: ExactAudioCopy v0.95b4
#
DISCID=dd115e0e
DTITLE=Burt, Kevin "B.F.", and the Instigators - Startin' Somethin'
DYEAR=2005
DGENRE=Blues
TTITLE0=Should'a Never Left Me Alone
TTITLE1=I've Been Watchin' You
TTITLE2=Stone Crazy
TTITLE3=You Get What You See
TTITLE4=Real Love
TTITLE5=Crazy 'bout You Baby
TTITLE6=I Don't Want to See You No More
TTITLE7=No Blues
TTITLE8=I'm Bustin' Out
TTITLE9=Tell It To Another Fool
TTITLE10=Save A Drownin' Man
TTITLE11=Doin' The Same
TTITLE12=Checker's Song
TTITLE13=Thank You
EXTD=
EXTT0=
EXTT1=
EXTT2=
EXTT3=
EXTT4=
EXTT5=
EXTT6=
EXTT7=
EXTT8=
EXTT9=
EXTT10=
EXTT11=
EXTT12=
EXTT13=
PLAYORDER=
